<?xml version="1.0" encoding="UTF-8" standalone="no"?>
<svg width="150px" height="15px" viewBox="0 0 150 15" version="1.1" xmlns="http://www.w3.org/2000/svg" xmlns:xlink="http://www.w3.org/1999/xlink">
    <!-- Generator: Sketch 45.2 (43514) - http://www.bohemiancoding.com/sketch -->
    <title>Combined Shape</title>
    <desc>Created with Sketch.</desc>
    <defs></defs>
    <g id="Page-1" stroke="none" stroke-width="1" fill="none" fill-rule="evenodd">
        <g id="Combined-Shape" fill="#FFFFFF" fill-rule="nonzero">
            <path d="M87.5618375,3.71626185 L87.5618375,14.6198458 L88.409894,14.6198458 L88.409894,9.7435208 L93.3467945,9.7435208 L93.3467945,9.0166152 L88.409894,9.0166152 L88.409894,4.45831135 L93.9071175,4.45831135 L93.9071175,3.71626185 L87.5618375,3.71626185 Z M95.1034825,10.6824405 C95.1034825,7.91111295 96.6935885,6.5178772 98.738011,6.5178772 C100.827865,6.5178772 102.357396,7.9262568 102.357396,10.6824405 C102.357396,13.4234804 100.827865,14.847004 98.753155,14.847004 C96.6935885,14.847004 95.1034825,13.3931927 95.1034825,10.6824405 Z M95.951539,10.6824405 C95.951539,12.9994522 97.163049,14.1806737 98.738011,14.1806737 C100.358405,14.1806737 101.509339,12.9994522 101.509339,10.6824405 C101.509339,8.3502851 100.343261,7.18420735 98.738011,7.18420735 C97.1327615,7.18420735 95.951539,8.36542895 95.951539,10.6824405 Z M105.053004,14.6198458 L105.053004,10.3189878 C105.053004,8.4260044 106.037355,7.3053583 107.188289,7.3053583 C107.50631,7.3053583 107.7789,7.36593375 108.05149,7.4416531 L108.05149,6.63902815 C107.869763,6.5784527 107.551742,6.5178772 107.233721,6.5178772 C106.249369,6.5178772 105.446744,7.0630564 105.022716,8.2594219 L104.901565,6.7450352 L104.235235,6.7450352 L104.235235,14.6198458 L105.053004,14.6198458 Z M118.500758,14.1049545 C116.168602,14.1049545 114.442201,12.2876904 114.442201,9.2589171 C114.442201,5.9878419 116.183746,4.23115335 118.485613,4.23115335 C120.378597,4.23115335 121.756689,5.18521695 122.104998,7.00248095 L122.953055,7.00248095 C122.635033,4.82176415 120.848057,3.48910385 118.485613,3.48910385 C115.699142,3.48910385 113.563857,5.518382 113.563857,9.2589171 C113.563857,12.681431 115.547703,14.847004 118.485613,14.847004 C121.029783,14.847004 122.710753,13.1206031 122.93791,11.0004617 L122.089854,11.0004617 C121.862696,12.9237328 120.454316,14.1049545 118.500758,14.1049545 Z M125.739525,4.836908 L125.739525,3.71626185 L124.755175,3.71626185 L124.755175,4.836908 L125.739525,4.836908 Z M125.648663,14.6198458 L125.648663,6.7450352 L124.830894,6.7450352 L124.830894,14.6198458 L125.648663,14.6198458 Z M130.933872,7.45679695 L130.933872,6.7450352 L129.101464,6.7450352 L129.101464,4.85205185 L128.329127,4.85205185 L128.283694,6.7450352 L127.147905,6.7450352 L127.147905,7.45679695 L128.283694,7.45679695 L128.283694,13.0297398 C128.283694,14.2109615 128.950025,14.8470039 130.085815,14.8470039 C130.403836,14.8470039 130.721857,14.8015723 131.08531,14.6955652 L131.08531,14.0292351 C130.676426,14.1352422 130.418981,14.1503861 130.131247,14.1503861 C129.495204,14.1503861 129.101464,13.8020771 129.101464,13.0448838 L129.101464,7.45679695 L130.933872,7.45679695 Z M133.462897,4.836908 L133.462897,3.71626185 L132.478546,3.71626185 L132.478546,4.836908 L133.462897,4.836908 Z M133.372034,14.6198458 L133.372034,6.7450352 L132.554266,6.7450352 L132.554266,14.6198458 L133.372034,14.6198458 Z M141.398284,12.4694169 L142.261484,12.4694169 C141.882887,13.9080842 140.671378,14.847004 138.990409,14.847004 C136.855123,14.847004 135.249874,13.3780488 135.249874,10.6824405 C135.249874,7.9868323 136.809693,6.5178772 138.83897,6.5178772 C140.853105,6.5178772 142.397779,7.8808252 142.397779,10.8793108 L136.082786,10.8793108 C136.158505,13.1206031 137.43059,14.1503861 139.005553,14.1503861 C140.186774,14.1503861 141.095406,13.5143437 141.398284,12.4694169 Z M138.83897,7.18420735 C137.400303,7.18420735 136.249369,8.22913415 136.09793,10.1978369 L141.549723,10.1978369 C141.443715,8.18370255 140.307926,7.18420735 138.83897,7.18420735 Z M149.151944,12.5451361 C149.151944,11.5304971 148.364463,11.1216126 146.577486,10.8035914 C144.972237,10.5310018 144.018173,9.84952785 144.018173,8.6077308 C144.018173,7.4265092 144.972237,6.5178772 146.880364,6.5178772 C148.515901,6.5178772 149.72741,7.36593375 149.954569,8.698594 L149.106512,8.698594 C148.970217,7.82024975 148.091873,7.18420735 146.850076,7.18420735 C145.471984,7.18420735 144.851085,7.8051059 144.851085,8.5320115 C144.851085,9.3952119 145.365977,9.81924015 147.046946,10.1372613 C149.06108,10.515858 150,11.1367566 150,12.4997045 C150,13.7566455 148.849066,14.847004 146.910652,14.847004 C145.063099,14.847004 143.92731,13.8929404 143.745583,12.5299923 L144.59364,12.5299923 C144.71479,13.5294875 145.577991,14.1806737 146.925795,14.1806737 C148.379606,14.1806737 149.151944,13.3931927 149.151944,12.5451361 Z M7.796094,14.9305221 L7.796094,10.1351703 L9.00476875,10.1351703 L9.00476875,14.9305221 L7.796094,14.9305221 Z M18.7506547,11.509197 C18.701239,11.4838675 18.3118245,11.2532966 17.7337318,11.2532966 C16.9523018,11.2532966 16.4101478,11.7977656 16.4101478,12.5323254 C16.4101478,13.2451064 16.9291308,13.8125378 17.7337318,13.8125378 C18.301894,13.8125378 18.697456,13.5867014 18.7506547,13.5578209 L18.7506547,14.8451351 C18.5988611,14.8879824 18.186039,15.0158143 17.6490868,15.0158143 C16.2898005,15.0158143 15.0962578,14.0774338 15.0962578,12.5323254 C15.0962578,11.100135 16.1760735,10.0500201 17.6490868,10.0500201 C18.2160667,10.0500201 18.6362184,10.1882678 18.7506547,10.2218829 L18.7506547,11.509197 Z M6.13454455,11.509197 C6.08583815,11.4838675 5.6971329,11.2532966 5.1190402,11.2532966 C4.3361916,11.2532966 3.7945105,11.7977656 3.7945105,12.5323254 C3.7945105,13.2451064 4.3137299,13.8125378 5.1190402,13.8125378 C5.6874389,13.8125378 6.082528,13.5867014 6.13454455,13.5578209 L6.13454455,14.8451351 C5.9841695,14.8879824 5.57229325,15.0158143 5.0322672,15.0158143 C3.6736903,15.0158143 2.4818027,14.0774338 2.4818027,12.5323254 C2.4818027,11.100135 3.56161835,10.0500201 5.0322672,10.0500201 C5.60113875,10.0500201 6.02105395,10.1882678 6.13454455,10.2218829 L6.13454455,11.509197 Z M25.0840205,12.5322307 C25.0840205,13.9042926 24.0259573,15.0159563 22.5529441,15.0159563 C21.0799308,15.0159563 20.0232861,13.9042926 20.0232861,12.5322307 C20.0232861,11.1627727 21.0799308,10.0501621 22.5529441,10.0501621 C24.0259573,10.0501621 25.0840205,11.1627727 25.0840205,12.5322307 Z M22.5529441,11.2711931 C21.8358254,11.2711931 21.3033654,11.8360205 21.3033654,12.5322307 C21.3033654,13.230098 21.8358254,13.794452 22.5529441,13.794452 C23.2691169,13.794452 23.8032321,13.230098 23.8032321,12.5322307 C23.8032321,11.8360205 23.2691169,11.2711931 22.5529441,11.2711931 Z M13.5884881,11.225079 C13.5705188,11.2196342 13.0617026,11.0787824 12.643679,11.0787824 C12.159216,11.0787824 11.8960597,11.2411763 11.8960597,11.4717471 C11.8960597,11.7638665 12.2511907,11.8656585 12.4500356,11.9286276 L12.7836507,12.0346806 C13.567918,12.2844263 13.9254133,12.8225037 13.9254133,13.4067426 C13.9254133,14.6114396 12.86735,15.0160037 11.9424017,15.0160037 C11.2992884,15.0160037 10.6973154,14.8976409 10.6379693,14.8848577 L10.6379693,13.7814793 C10.7443667,13.8084661 11.2510549,13.9594971 11.779259,13.9594971 C12.3805226,13.9594971 12.6571559,13.7836099 12.6571559,13.5118488 C12.6571559,13.2689683 12.41788,13.12859 12.1180757,13.0343732 C12.0447797,13.0099904 11.9348356,12.9754285 11.860121,12.950809 C11.1867436,12.7377559 10.625438,12.3417138 10.625438,11.547736 C10.625438,10.6510192 11.2962147,10.0485524 12.4105504,10.0485524 C12.9988099,10.0485524 13.5525494,10.1915347 13.5884881,10.2012405 L13.5884881,11.225079 Z M1.20016295,4.9813212 L1.20016295,6.24022825 C1.20016295,6.5725911 0.9306228,6.84056455 0.6000815,6.84056455 C0.270013,6.84056455 0,6.5725911 0,6.24022825 L0,4.9813212 C0,4.65085215 0.270013,4.3828787 0.6000815,4.3828787 C0.9306228,4.3828787 1.20016295,4.65085215 1.20016295,4.9813212 Z M4.49621335,3.32897605 L4.49621335,6.24022825 C4.49621335,6.5725911 4.2266732,6.84056455 3.89613185,6.84056455 C3.5655905,6.84056455 3.29605035,6.5725911 3.29605035,6.24022825 L3.29605035,3.32897605 C3.29605035,2.99850705 3.5655905,2.7300601 3.89613185,2.7300601 C4.2266732,2.7300601 4.49621335,2.99850705 4.49621335,3.32897605 Z M7.7922637,1.06841165 L7.7922637,7.43656875 C7.7922637,7.76893155 7.52272355,8.036905 7.19218225,8.036905 C6.8616409,8.036905 6.59210075,7.76893155 6.59210075,7.43656875 L6.59210075,1.06841165 C6.59210075,0.73794265 6.8616409,0.4699692 7.19218225,0.4699692 C7.52272355,0.4699692 7.7922637,0.73794265 7.7922637,1.06841165 Z M11.088456,3.32897605 L11.088456,6.24022825 C11.088456,6.5725911 10.8189158,6.84056455 10.4883744,6.84056455 C10.1578331,6.84056455 9.88829295,6.5725911 9.88829295,6.24022825 L9.88829295,3.32897605 C9.88829295,2.99850705 10.1578331,2.7300601 10.4883744,2.7300601 C10.8189158,2.7300601 11.088456,2.99850705 11.088456,3.32897605 Z M14.3806997,4.9813212 L14.3806997,6.24022825 C14.3806997,6.5725911 14.113051,6.84056455 13.7844012,6.84056455 C13.4538599,6.84056455 13.1843197,6.5725911 13.1843197,6.24022825 L13.1843197,4.9813212 C13.1843197,4.65085215 13.4538599,4.3828787 13.7844012,4.3828787 C14.113051,4.3828787 14.3806997,4.65085215 14.3806997,4.9813212 Z M17.6783578,3.32897605 L17.6783578,6.24022825 C17.6783578,6.5725911 17.4107092,6.84056455 17.0801678,6.84056455 C16.7503358,6.84056455 16.4819778,6.5725911 16.4819778,6.24022825 L16.4819778,3.32897605 C16.4819778,2.99850705 16.7503358,2.7300601 17.0801678,2.7300601 C17.4107092,2.7300601 17.6783578,2.99850705 17.6783578,3.32897605 Z M20.9766307,1.06841165 L20.9766307,7.43656875 C20.9766307,7.76893155 20.7089821,8.036905 20.3784407,8.036905 C20.0478994,8.036905 19.7802508,7.76893155 19.7802508,7.43656875 L19.7802508,1.06841165 C19.7802508,0.73794265 20.0478994,0.4699692 20.3784407,0.4699692 C20.7089821,0.4699692 20.9766307,0.73794265 20.9766307,1.06841165 Z M24.2741707,3.32897605 L24.2741707,6.24022825 C24.2741707,6.5725911 24.0065221,6.84056455 23.6684146,6.84056455 C23.3381098,6.84056455 23.0704612,6.5725911 23.0704612,6.24022825 L23.0704612,3.32897605 C23.0704612,2.99850705 23.3381098,2.7300601 23.6684146,2.7300601 C24.0065221,2.7300601 24.2741707,2.99850705 24.2741707,3.32897605 Z M27.565043,4.9813212 L27.565043,6.24022825 C27.565043,6.5725911 27.2966851,6.84056455 26.9668531,6.84056455 C26.6363117,6.84056455 26.3679538,6.5725911 26.3679538,6.24022825 L26.3679538,4.9813212 C26.3679538,4.65085215 26.6363117,4.3828787 26.9668531,4.3828787 C27.2966851,4.3828787 27.565043,4.65085215 27.565043,4.9813212 Z M41.443452,14.7920376 L35.9254455,9.50571675 L35.9254455,14.7920376 L35.0896345,14.7920376 L35.0896345,4.04043135 L35.9254455,4.04043135 L35.9254455,9.04291805 L41.100143,4.04043135 L42.129361,4.04043135 L36.7749695,9.2221194 L42.576703,14.7920376 L41.443452,14.7920376 Z M43.9043065,14.7920375 L43.9043065,7.0269623 L44.7093805,7.0269623 L44.7093805,14.7920375 L43.9043065,14.7920375 Z M43.8293555,5.14523 L43.8293555,4.04019465 L44.799227,4.04019465 L44.799227,5.14523 L43.8293555,5.14523 Z M47.00669,14.7920375 L47.00669,7.0269623 L47.6774665,7.0269623 L47.7675495,8.35617695 C48.0359075,7.84816365 48.398841,7.46253755 48.8556405,7.19858845 C49.3136225,6.93511275 49.8106165,6.80301985 50.347569,6.80301985 C51.1722675,6.80301985 51.826257,7.04187605 52.3083555,7.51982515 C52.7911635,7.99753755 53.0316215,8.65965925 53.0316215,9.50571675 L53.0316215,14.7920375 L52.2265475,14.7920375 L52.2265475,9.5355442 C52.2265475,8.8788672 52.0475635,8.3734579 51.6898315,8.0200265 C51.3318635,7.66659505 50.8247025,7.489761 50.168585,7.489761 C49.8801295,7.489761 49.594275,7.54728535 49.310785,7.66162385 C49.027768,7.77643575 48.7740695,7.94048665 48.549689,8.15448665 C48.326491,8.3687234 48.1475065,8.6298318 48.012973,8.93828535 C47.8791485,9.2472123 47.811764,9.59046455 47.811764,9.96875215 L47.811764,14.7920375 L47.00669,14.7920375 Z M61.7125875,12.6717569 C61.5239095,13.3883254 61.1479715,13.9583607 60.5861935,14.3811528 C60.024415,14.8044183 59.325975,15.0158143 58.4908735,15.0158143 C57.963615,15.0158143 57.477024,14.9265687 57.0294455,14.7473674 C56.58234,14.5681661 56.1945805,14.3046905 55.865694,13.9559936 C55.5377535,13.6072966 55.27909,13.1792966 55.0904115,12.6717569 C54.901497,12.1639803 54.8073945,11.5764272 54.8073945,10.9095709 C54.8073945,10.242478 54.8967685,9.65492495 55.0757525,9.1473851 C55.2545,8.6398453 55.502997,8.21160855 55.82148,7.8631484 C56.1397265,7.51492495 56.5147185,7.2509758 56.947638,7.0717745 C57.3798475,6.8928099 57.84445,6.80309085 58.3416805,6.80309085 C58.8391475,6.80309085 59.301149,6.88783865 59.7288665,7.0568608 C60.1563475,7.22635635 60.5266105,7.48746475 60.839892,7.84089615 C61.1536465,8.1943276 61.3990695,8.64221255 61.5785265,9.18455105 C61.757511,9.72759975 61.847121,10.3672324 61.847121,11.1036859 L55.6271275,11.1036859 C55.647225,11.6611749 55.733998,12.1414913 55.888629,12.5446351 C56.0425505,12.9480157 56.2484885,13.2813254 56.5071525,13.5452745 C56.766053,13.8089869 57.066803,14.0054692 57.409639,14.1351948 C57.752948,14.2646838 58.1184825,14.3293099 58.5060055,14.3293099 C59.0923735,14.3293099 59.594333,14.1823032 60.012593,13.8885267 C60.4301435,13.5952236 60.713161,13.189239 60.8621175,12.6717569 L61.7125875,12.6717569 Z M56.5147185,8.21421255 C56.012759,8.71701785 55.7214665,9.4560754 55.642496,10.4318586 L61.01131,10.4318586 C60.981519,9.93378775 60.894982,9.49844925 60.750518,9.12489615 C60.6062905,8.7515798 60.4150115,8.443363 60.176445,8.19929885 C59.937642,7.9554714 59.661718,7.77129885 59.3489095,7.64678115 C59.035392,7.52226345 58.6996485,7.4600046 58.3416805,7.4600046 C57.626217,7.4600046 57.0169145,7.71140725 56.5147185,8.21421255 Z M64.8746715,7.72875925 L64.8746715,13.2390225 C64.8746715,13.6173101 64.9640455,13.8938056 65.1430295,14.067799 C65.3220135,14.2420292 65.570038,14.3291441 65.888521,14.3291441 C66.0280195,14.3291441 66.1696465,14.3215689 66.313874,14.3066552 C66.4578655,14.2917415 66.6292835,14.2593101 66.828365,14.2098345 L66.828365,14.8667481 C66.4907305,14.9659362 66.1625535,15.0158853 65.844307,15.0158853 C65.277563,15.0158853 64.839915,14.8643809 64.532072,14.5604251 C64.223283,14.2569429 64.0693615,13.8114251 64.0693615,13.2241087 L64.0693615,7.72875925 L62.950533,7.72875925 L62.950533,7.02710435 L64.0693615,7.02710435 L64.1135755,5.1605225 L64.8746715,5.1605225 L64.8746715,7.02710435 L66.6794085,7.02710435 L66.6794085,7.72875925 L64.8746715,7.72875925 Z M68.2749915,14.7920375 L68.2749915,7.0269623 L69.0803015,7.0269623 L69.0803015,14.7920375 L68.2749915,14.7920375 Z M68.2002765,5.14523 L68.2002765,4.04019465 L69.169912,4.04019465 L69.169912,5.14523 L68.2002765,5.14523 Z M77.581645,12.5074219 C77.5220625,12.8658245 77.402661,13.199371 77.223677,13.5078245 C77.044693,13.816278 76.8160565,14.0825944 76.537768,14.3067736 C76.2597165,14.5304794 75.9365045,14.7049462 75.568133,14.8294639 C75.200707,14.9537448 74.8025445,15.0160037 74.375063,15.0160037 C73.8981665,15.0160037 73.447987,14.9288886 73.025471,14.7546586 C72.6022455,14.5806652 72.2374205,14.3242913 71.9291045,13.9857736 C71.621025,13.6472559 71.3777295,13.2239904 71.1987455,12.7164506 C71.019761,12.208674 70.930151,11.6260922 70.930151,10.9691785 C70.930151,10.2824373 71.019761,9.68020725 71.1987455,9.1624882 C71.3777295,8.6447692 71.623862,8.20919395 71.9366705,7.85576255 C72.249952,7.50233115 72.617614,7.23861875 73.0408395,7.06415195 C73.463119,6.89015855 73.912589,6.8030435 74.3904315,6.8030435 C75.2255335,6.8030435 75.9268105,7.01728025 76.4933175,7.4450435 C77.0600615,7.87328025 77.4076265,8.45065415 77.537431,9.17740195 L76.65717,9.17740195 C76.5578655,8.6596829 76.3088955,8.2463599 75.9116785,7.93766965 C75.513279,7.6294528 75.016758,7.47487095 74.420223,7.47487095 C74.0421575,7.47487095 73.6912825,7.5470723 73.3690165,7.69171165 C73.045568,7.8361143 72.764679,8.05248155 72.5261125,8.3412869 C72.2875455,8.62985545 72.1009955,8.99583335 71.966462,9.43874705 C71.8326375,9.8818975 71.7652525,10.4019838 71.7652525,10.9990059 C71.7652525,11.5664374 71.834529,12.0595369 71.974028,12.4775944 C72.113527,12.895652 72.304333,13.2417449 72.5483375,13.5153997 C72.791633,13.7892913 73.0727585,13.9931121 73.391005,14.1275723 C73.7085425,14.2617957 74.0471225,14.3292625 74.4048545,14.3292625 C75.01132,14.3292625 75.526047,14.1626077 75.949036,13.8288244 C76.3713155,13.4955147 76.632107,13.0549683 76.7318845,12.5074219 L77.581645,12.5074219 Z"></path>
        </g>
    </g>
</svg>