<?xml version="1.0" encoding="UTF-8" standalone="no"?>
<svg width="18px" height="18px" viewBox="0 0 18 18" version="1.1" xmlns="http://www.w3.org/2000/svg" xmlns:xlink="http://www.w3.org/1999/xlink">
    <!-- Generator: Sketch 41.2 (35397) - http://www.bohemiancoding.com/sketch -->
    <title>question-circle - FontAwesome</title>
    <desc>Created with Sketch.</desc>
    <defs></defs>
    <g id="Page-1" stroke="none" stroke-width="1" fill="none" fill-rule="evenodd">
        <g id="Artboard" transform="translate(-8.000000, -7.000000)" fill="#6cc6fe">
            <path d="M18.0000119,21.2142836 C18.0000119,21.4151767 17.8437617,21.5714269 17.6428686,21.5714269 L15.5000089,21.5714269 C15.2991158,21.5714269 15.1428657,21.4151767 15.1428657,21.2142836 L15.1428657,19.0714239 C15.1428657,18.8705308 15.2991158,18.7142806 15.5000089,18.7142806 L17.6428686,18.7142806 C17.8437617,18.7142806 18.0000119,18.8705308 18.0000119,19.0714239 L18.0000119,21.2142836 Z M20.8571582,13.7142746 C20.8571582,15.4107052 19.6964425,16.0580274 18.8482272,16.5379387 C18.323673,16.8392784 18.0000119,17.386154 18.0000119,17.6428508 C18.0000119,17.8437439 17.8437617,17.999994 17.6428686,17.999994 L15.5000089,17.999994 C15.2991158,17.999994 15.1428657,17.8437439 15.1428657,17.6428508 L15.1428657,17.2410646 C15.1428657,16.158474 16.2254562,15.2321336 17.0178679,14.8749903 C17.6986723,14.5624899 18.0000119,14.272311 18.0000119,13.6919532 C18.0000119,13.2008812 17.341529,12.7432913 16.6272424,12.7432913 C16.2254562,12.7432913 15.8571522,12.8772201 15.6674199,13.0111488 C15.455366,13.167399 15.2321515,13.3682921 14.7075973,14.0379357 C14.6406329,14.1272216 14.5290256,14.1718645 14.4285791,14.1718645 C14.350454,14.1718645 14.2723289,14.149543 14.2165253,14.1049001 L12.7433092,12.9888274 C12.5982198,12.8772201 12.5535769,12.676327 12.6540234,12.5200768 C13.613846,10.9240927 14.9754547,10.1428418 16.7946533,10.1428418 C18.7142985,10.1428418 20.8571582,11.6718615 20.8571582,13.7142746 Z M25.1428776,15.8571343 C25.1428776,11.1249858 21.3035873,7.28569555 16.5714388,7.28569555 C11.8392903,7.28569555 8,11.1249858 8,15.8571343 C8,20.5892828 11.8392903,24.4285731 16.5714388,24.4285731 C21.3035873,24.4285731 25.1428776,20.5892828 25.1428776,15.8571343 Z" id="question-circle---FontAwesome"></path>
        </g>
    </g>
</svg>