<?xml version="1.0" encoding="UTF-8" standalone="no"?>
<svg width="20px" height="21px" viewBox="0 0 20 21" version="1.1" xmlns="http://www.w3.org/2000/svg" xmlns:xlink="http://www.w3.org/1999/xlink">
    <!-- Generator: Sketch 41.2 (35397) - http://www.bohemiancoding.com/sketch -->
    <title>bell - FontAwesome</title>
    <desc>Created with Sketch.</desc>
    <defs></defs>
    <g id="Page-1" stroke="none" stroke-width="1" fill="none" fill-rule="evenodd">
        <g id="Artboard" transform="translate(-6.000000, -5.000000)" fill="#6cc6fe">
            <path d="M16.1785836,24.7857164 C16.1785836,24.886163 16.1004585,24.9642881 16.0000119,24.9642881 C14.9174213,24.9642881 14.0357239,24.0825906 14.0357239,23 C14.0357239,22.8995535 14.113849,22.8214284 14.2142955,22.8214284 C14.3147421,22.8214284 14.3928671,22.8995535 14.3928671,23 C14.3928671,23.8816975 15.1183144,24.6071448 16.0000119,24.6071448 C16.1004585,24.6071448 16.1785836,24.6852699 16.1785836,24.7857164 Z M25.2857373,21.5714269 C23.6339496,20.1763359 21.7143044,17.6763329 21.7143044,12.2857015 C21.7143044,10.1428418 19.9397488,7.79908902 16.9821559,7.36382065 C17.0379596,7.22989191 17.0714418,7.08480246 17.0714418,6.92855227 C17.0714418,6.33703371 16.5915305,5.85712242 16.0000119,5.85712242 C15.4084934,5.85712242 14.9285821,6.33703371 14.9285821,6.92855227 C14.9285821,7.08480246 14.9620643,7.22989191 15.0178679,7.36382065 C12.0602751,7.79908902 10.2857194,10.1428418 10.2857194,12.2857015 C10.2857194,17.6763329 8.36607425,20.1763359 6.71428657,21.5714269 C6.71428657,22.3526778 7.36160877,23 8.1428597,23 L13.1428657,23 C13.1428657,24.5736626 14.4263493,25.8571463 16.0000119,25.8571463 C17.5736745,25.8571463 18.8571582,24.5736626 18.8571582,23 L23.8571641,23 C24.6384151,23 25.2857373,22.3526778 25.2857373,21.5714269 Z" id="bell---FontAwesome"></path>
        </g>
    </g>
</svg>