<?xml version="1.0" encoding="UTF-8" standalone="no"?>
<svg width="16px" height="16px" viewBox="0 0 16 16" version="1.1" xmlns="http://www.w3.org/2000/svg" xmlns:xlink="http://www.w3.org/1999/xlink">
    <!-- Generator: Sketch 46.2 (44496) - http://www.bohemiancoding.com/sketch -->
    <title>Shape</title>
    <desc>Created with Sketch.</desc>
    <defs></defs>
    <g id="Page-1" stroke="none" stroke-width="1" fill="none" fill-rule="evenodd">
        <g id="noun_544969_cc" fill-rule="nonzero" fill="#82CEFE">
            <g id="Group">
                <path d="M5.44985673,0.171919771 L5.44985673,1.23782235 L2.40687679,1.23782235 L1.99426934,1.23782235 L2.28653295,1.53008596 L5.75931232,5.00286533 L5.00286533,5.75931232 L1.53008596,2.26934097 L1.23782235,1.97707736 L1.23782235,2.40687679 L1.23782235,5.44985673 L0.171919771,5.44985673 L0.171919771,0.171919771 L5.44985673,0.171919771 L5.44985673,0.171919771 Z M5.6217765,0 L0,0 L0,5.6217765 L1.40974212,5.6217765 L1.40974212,2.40687679 L5.00286533,6 L6,5.00286533 L2.40687679,1.40974212 L5.6217765,1.40974212 L5.6217765,0 L5.6217765,0 Z M10.9971347,10.2406877 L14.469914,13.713467 L14.7621777,14.0057307 L14.7621777,13.5931232 L14.7621777,10.5501433 L15.8280802,10.5501433 L15.8280802,15.8280802 L10.5501433,15.8280802 L10.5501433,14.7621777 L13.5931232,14.7621777 L14.0057307,14.7621777 L13.713467,14.469914 L10.2406877,10.9971347 L10.9971347,10.2406877 L10.9971347,10.2406877 Z M10.9971347,10 L10,10.9971347 L13.5931232,14.5902579 L10.3782235,14.5902579 L10.3782235,16 L16,16 L16,10.3782235 L14.5902579,10.3782235 L14.5902579,13.5931232 L10.9971347,10 L10.9971347,10 Z" id="Shape"></path>
            </g>
        </g>
    </g>
</svg>