<?xml version="1.0" encoding="UTF-8" standalone="no"?>
<svg width="21px" height="21px" viewBox="0 0 21 21" version="1.1" xmlns="http://www.w3.org/2000/svg" xmlns:xlink="http://www.w3.org/1999/xlink">
    <!-- Generator: Sketch 41.2 (35397) - http://www.bohemiancoding.com/sketch -->
    <title></title>
    <desc>Created with Sketch.</desc>
    <defs></defs>
    <g id="Page-1" stroke="none" stroke-width="1" fill="none" fill-rule="evenodd">
        <g id="Artboard" transform="translate(-6.000000, -6.000000)" fill="#6cc6fe">
            <path d="M20.7,16.5 C20.7,18.8132813 18.8132813,20.7 16.5,20.7 C14.1867188,20.7 12.3,18.8132813 12.3,16.5 C12.3,14.1867188 14.1867188,12.3 16.5,12.3 C18.8132813,12.3 20.7,14.1867188 20.7,16.5 Z M27,15.0070313 C27,14.7773438 26.8359375,14.5640625 26.60625,14.5148438 L24.1125,14.1375 C23.9648438,13.678125 23.7679687,13.2351563 23.5546875,12.7921875 C24.0140625,12.1523438 24.50625,11.5617188 24.9820313,10.921875 C25.0476562,10.8234375 25.096875,10.725 25.096875,10.6101563 C25.096875,10.1507813 23.1609375,8.37890625 22.734375,7.98515625 C22.6359375,7.903125 22.5210938,7.85390625 22.3898438,7.85390625 C22.275,7.85390625 22.1601562,7.88671875 22.0617188,7.96875 L20.1257812,9.42890625 C19.7320312,9.23203125 19.321875,9.0515625 18.8953125,8.9203125 L18.5179688,6.41015625 C18.4851562,6.18046875 18.2554687,6 18.0257813,6 L14.9742188,6 C14.7445312,6 14.5476563,6.1640625 14.4820313,6.39375 C14.26875,7.19765625 14.1867187,8.1 14.1046875,8.9203125 C13.6617188,9.06796875 13.2515625,9.23203125 12.8414063,9.4453125 L10.9546875,7.96875 C10.85625,7.903125 10.7414063,7.85390625 10.6101562,7.85390625 C10.134375,7.85390625 8.296875,9.8390625 7.96875,10.2820313 C7.88671875,10.3804688 7.85390625,10.4953125 7.85390625,10.6101563 C7.85390625,10.725 7.903125,10.8398438 7.96875,10.9382813 C8.49375,11.5617188 8.9859375,12.16875 9.4453125,12.825 C9.23203125,13.2351563 9.0515625,13.6453125 8.9203125,14.071875 L6.37734375,14.465625 C6.1640625,14.4984375 6,14.7445313 6,14.9578125 L6,17.9929687 C6,18.2226562 6.1640625,18.4359375 6.39375,18.46875 L8.8875,18.8625 C9.03515625,19.321875 9.23203125,19.7648438 9.46171875,20.2078125 C8.9859375,20.8476562 8.49375,21.4546875 8.01796875,22.078125 C7.95234375,22.1765625 7.903125,22.275 7.903125,22.3898438 C7.903125,22.865625 9.8390625,24.6210938 10.265625,25.0148438 C10.3640625,25.096875 10.4789063,25.1460938 10.6101562,25.1460938 C10.725,25.1460938 10.85625,25.1132812 10.9382812,25.03125 L12.8742188,23.5710937 C13.2679687,23.7679687 13.678125,23.9484375 14.1046875,24.0796875 L14.4820313,26.5898438 C14.5148437,26.8195313 14.7445312,27 14.9742188,27 L18.0257813,27 C18.2554687,27 18.4523438,26.8359375 18.5179688,26.60625 C18.73125,25.8023438 18.8132812,24.9 18.8953125,24.0632812 C19.3382813,23.9320312 19.7484375,23.7679687 20.1585938,23.5546875 L22.0453125,25.03125 C22.14375,25.096875 22.2585937,25.1460938 22.3898438,25.1460938 C22.865625,25.1460938 24.703125,23.1445312 25.03125,22.7015625 C25.1132812,22.6195312 25.1460938,22.5046875 25.1460938,22.3898438 C25.1460938,22.2585937 25.096875,22.1601562 25.03125,22.0617188 C24.50625,21.4382812 24.0140625,20.83125 23.5546875,20.175 C23.7679687,19.7648438 23.9484375,19.3546875 24.0796875,18.928125 L26.6226563,18.534375 C26.8359375,18.5015625 27,18.2554687 27,18.0421875 L27,15.0070313 Z" id=""></path>
        </g>
    </g>
</svg>